<svg xmlns="http://www.w3.org/2000/svg" viewBox="0 0 40 40">
  <g>
    <path d="M39.97 13.607c-.009-.048-.017-.1-.03-.144-.008-.029-.018-.055-.027-.084s-.028-.084-.044-.125-.025-.056-.038-.083-.038-.077-.059-.114-.032-.053-.049-.08a1.725 1.725 0 0 0-.132-.178q-.041-.048-.085-.093c-.023-.023-.045-.045-.069-.067s-.064-.056-.1-.081-.051-.041-.078-.059c-.01-.007-.018-.015-.028-.022L20.953.289a1.717 1.717 0 0 0-1.906 0L.765 12.476c-.01.006-.018.015-.028.022-.027.019-.052.039-.078.059s-.066.053-.1.081-.046.044-.068.067-.058.061-.086.093-.04.048-.059.075-.05.068-.073.1-.033.052-.049.08-.04.075-.058.113-.027.055-.038.083-.031.083-.045.125-.019.055-.026.081c-.013.047-.022.1-.03.144 0 .025-.011.049-.014.074a1.728 1.728 0 0 0-.013.226v12.19a1.557 1.557 0 0 0 .016.225c0 .027.011.048.016.074a1 1 0 0 0 .032.145c.008.027.016.054.027.083s.027.086.043.126.027.054.038.081.038.075.059.115.032.054.048.079a.848.848 0 0 0 .075.1c.019.027.038.048.059.074a.865.865 0 0 0 .086.093.422.422 0 0 0 .07.065l.1.082c.026.022.054.038.075.059.01.005.016.016.027.021l18.276 12.2a1.69 1.69 0 0 0 .953.288 1.728 1.728 0 0 0 .953-.289l18.282-12.187c.01-.006.019-.014.028-.021.027-.019.052-.039.078-.059s.066-.054.1-.082.046-.044.069-.067a1.543 1.543 0 0 0 .144-.168c.026-.034.05-.069.073-.1s.033-.052.049-.079.04-.076.059-.115.027-.055.038-.083.031-.084.044-.126.019-.055.027-.083c.012-.047.021-.1.03-.144 0-.025.011-.049.013-.074a1.7 1.7 0 0 0 .013-.223V13.906a1.819 1.819 0 0 0-.015-.225c0-.026-.012-.048-.018-.074zM20 24.066l-6.079-4.067L20 15.934l6.079 4.065zm-1.719-11.118l-7.452 4.984-6.015-4.024L18.281 4.93v8.018zM7.738 19.999l-4.3 2.876v-5.751zm3.091 2.07l7.452 4.984v8.018L4.814 26.092l6.015-4.023zm10.889 4.983l7.452-4.984 6.016 4.023-13.467 8.979v-8.018zm10.544-7.053l4.3-2.876v5.752l-4.3-2.876zm-3.092-2.067l-7.451-4.983V4.93l13.467 8.979-6.016 4.024z" fill="#202020"/>
  </g>
</svg>