<svg xmlns="http://www.w3.org/2000/svg" viewBox="0 0 40 40">
  <g>
    <path fill='#202020' d="M20 0A20.259 20.259 0 0 0 0 20.506a20.472 20.472 0 0 0 13.677 19.459c1 .19 1.367-.445 1.367-.987 0-.489-.019-2.1-.027-3.818-5.564 1.24-6.738-2.419-6.738-2.419a5.4 5.4 0 0 0-2.221-3c-1.815-1.273.137-1.247.137-1.247a4.217 4.217 0 0 1 3.066 2.113c1.784 3.135 4.679 2.229 5.82 1.7a4.409 4.409 0 0 1 1.27-2.742c-4.442-.519-9.112-2.277-9.112-10.134a8.048 8.048 0 0 1 2.061-5.5A7.542 7.542 0 0 1 9.493 8.5s1.679-.551 5.5 2.1a18.521 18.521 0 0 1 10.016 0C28.828 7.953 30.5 8.5 30.5 8.5a7.532 7.532 0 0 1 .2 5.427 8.033 8.033 0 0 1 2.058 5.5c0 7.876-4.679 9.61-9.132 10.118a4.969 4.969 0 0 1 1.357 3.8c0 2.744-.023 4.952-.023 5.628 0 .546.36 1.185 1.374.984A20.47 20.47 0 0 0 40 20.506 20.258 20.258 0 0 0 20 0"/>
    <path fill='#202020' d="M44.876 179.82c-.044.1-.2.132-.343.063s-.227-.206-.18-.308.2-.134.344-.064.228.207.178.309m.984.9c-.1.091-.282.049-.408-.095a.319.319 0 0 1-.059-.426c.1-.091.279-.048.41.095s.156.335.056.426m.675 1.151c-.123.087-.323.005-.447-.177a.362.362 0 0 1 0-.489c.124-.088.322-.009.447.172a.369.369 0 0 1 0 .494m1.141 1.334c-.11.124-.343.091-.514-.078a.4.4 0 0 1-.114-.524c.111-.124.346-.089.518.079s.227.4.11.524m1.475.45c-.048.161-.273.234-.5.165s-.374-.258-.329-.421.273-.238.5-.165.374.257.327.42m1.679.191c.006.169-.187.309-.424.313s-.433-.132-.435-.3.188-.31.427-.314.433.131.433.3m1.649-.065c.029.165-.137.335-.373.38s-.447-.058-.477-.222.14-.339.371-.382.448.057.478.225" transform="translate(-37.385 -150.608)"/>
  </g>
</svg>