<svg xmlns="http://www.w3.org/2000/svg" viewBox="0 0 65 65">
  <g>
    <path d="M65 55.972A9.026 9.026 0 0 1 55.972 65H9.028A9.028 9.028 0 0 1 0 55.972V9.028A9.028 9.028 0 0 1 9.028 0h46.944A9.026 9.026 0 0 1 65 9.028z" fill="#fff"/>
    <path d="M48.804 35.389a8.9 8.9 0 0 0-5.056-3.34 8.128 8.128 0 0 0 3.5-3.16 10.621 10.621 0 0 0 1.5-5.742 10.321 10.321 0 0 0-4.225-8.9c-2.815-2.042-5.992-3.414-11.391-3.414H16.25v43.333h18.832c5.11-.036 8.956-1.137 11.574-3.25 2.6-2.149 3.9-5.326 3.9-9.569a9.9 9.9 0 0 0-1.752-5.958zM27.083 18.055h7.674a4.965 4.965 0 1 1 0 9.931h-7.674zm9.028 28.889h-9.028V36.111h9.028a5.417 5.417 0 0 1 0 10.833z" fill="#de4a4a"/>
  </g>
</svg>