<svg xmlns="http://www.w3.org/2000/svg" viewBox="0 0 65 65">
  <g>
    <path d="M63.632 29.25L35.75 1.368A4.673 4.673 0 0 0 32.5 0a4.673 4.673 0 0 0-3.25 1.368l-5.987 5.987 7.013 7.013a4.735 4.735 0 0 1 2.224-.513 5.04 5.04 0 0 1 5.132 5.132 4.735 4.735 0 0 1-.513 2.224l6.842 6.842a4.735 4.735 0 0 1 2.224-.513 5.132 5.132 0 1 1-5.132 5.132 4.735 4.735 0 0 1 .513-2.224l-6.842-6.842c-.171 0-.342.171-.513.171v17.789a4.983 4.983 0 0 1 3.421 4.789 5.132 5.132 0 1 1-10.263 0 4.983 4.983 0 0 1 3.421-4.789V23.605a4.983 4.983 0 0 1-3.421-4.789 4.735 4.735 0 0 1 .513-2.224l-7.013-7.013L1.368 29.25a4.544 4.544 0 0 0 0 6.5L29.25 63.632a4.544 4.544 0 0 0 6.5 0L63.632 35.75a4.544 4.544 0 0 0 0-6.5z" fill="#fff"/>
  </g>
</svg>