<svg xmlns="http://www.w3.org/2000/svg" viewBox="0 0 65 72">
  <g id="jest">
    <g id="jest2">
      <path fill='transparent' d="M191.184 95.6l-4.284 8.713a9.342 9.342 0 0 1 2.794 5h3.229a9.368 9.368 0 0 1 2.587-4.815z" transform="translate(-148.226 -75.672)"/>
      <path fill='transparent' d="M56.255 42.367l7.885-16.051L72 42.471c.31-.1.621-.188.931-.271L80.408 20H47.852L55.3 42.138c.313.062.644.146.955.229zm-2.711 14.2a5.264 5.264 0 0 0 4.367-8.13 5.156 5.156 0 0 0-.58-.75l-.021-.021a3.869 3.869 0 0 0-.7-.6l-.021-.021a2.178 2.178 0 0 0-.228-.146c-.021 0-.021-.021-.041-.021-.083-.042-.166-.1-.248-.146h-.021c-.083-.042-.186-.1-.269-.146h-.021a1.261 1.261 0 0 0-.248-.1c-.021 0-.041-.021-.062-.021-.062-.021-.145-.063-.207-.083-.021 0-.041-.021-.083-.021-.083-.021-.166-.063-.248-.083h-.021c-.1-.021-.186-.042-.29-.063a.156.156 0 0 1-.083-.021c-.083-.021-.145-.021-.228-.042a.185.185 0 0 1-.1-.021c-.062 0-.145-.021-.207-.021h-.807c-.083 0-.145.021-.228.021h-.089c-.083.021-.166.021-.248.042h-.062c-.1.021-.186.042-.29.063a5.248 5.248 0 0 0 1.283 10.339zm21.938-10.51h-.042c-.083 0-.145-.021-.228-.021h-.269a1.881 1.881 0 0 0-.331.021h-.1c-.083 0-.166.021-.248.021a.124.124 0 0 0-.083.021l-.31.063h-.021c-.1.021-.186.042-.29.063-.021 0-.062.021-.083.021a1.161 1.161 0 0 0-.248.083c-.021 0-.041.021-.062.021-.1.042-.207.083-.29.125-.1.042-.186.083-.29.125-.021 0-.041.021-.062.021a1.541 1.541 0 0 0-.248.146.02.02 0 0 0-.021.021 3.125 3.125 0 0 0-.538.375l-.021.021a5.675 5.675 0 0 0-.724.688 4.61 4.61 0 0 0-.58.834 5.313 5.313 0 0 0-.683 2.606 5.216 5.216 0 1 0 6.23-5.17 2.55 2.55 0 0 0-.455-.083zM31.916 56.563A5.253 5.253 0 1 0 26.7 51.31a5.239 5.239 0 0 0 5.216 5.253z" transform="translate(-21.182 -15.831)"/>
      <path fill='transparent' d="M69.685 188.383a9.3 9.3 0 0 1-8.962-6.983h-3.477a9.3 9.3 0 0 1-8.962 6.983 10.459 10.459 0 0 1-1.428-.1 27.953 27.953 0 0 1-4.3 5.149 28.481 28.481 0 0 1-9.934 6.212l-.849.313-.786-.417a10.626 10.626 0 0 1-5.8-11.236 7.989 7.989 0 0 1-1.428-.375c-.083.146-.145.313-.228.479a32.359 32.359 0 0 0-3.208 8.63c-.538 3.252-.766 9.193 3.787 12.361a10.947 10.947 0 0 0 6.416 2.064c4.491 0 9.334-2.418 14.467-4.982 4.015-2 8.154-4.086 12.459-5.149 1.635-.4 3.291-.646 4.884-.876 2.918-.417 5.692-.834 7.947-2.147a9.206 9.206 0 0 0 4.491-6.4 9.415 9.415 0 0 0-.414-4.794 9.3 9.3 0 0 1-4.675 1.268z" transform="translate(-15.902 -143.586)"/>
      <path d="M63.072 35.458a9.338 9.338 0 0 0-6.933-9.026L65.038 0h-44.1l8.92 26.515a9.353 9.353 0 0 0-2.778 16.572 24.784 24.784 0 0 1-3.229 3.731 24.225 24.225 0 0 1-7.6 4.94 6.3 6.3 0 0 1-2.587-7.338 9.334 9.334 0 0 0-2.711-18.24 9.33 9.33 0 0 0-6.577 15.886c-.145.292-.29.584-.435.9a36.13 36.13 0 0 0-3.56 9.776c-1.2 7.3.766 13.153 5.505 16.468A15.094 15.094 0 0 0 14.662 72c5.443 0 10.969-2.752 16.309-5.42 3.808-1.9 7.74-3.877 11.611-4.836 1.428-.354 2.918-.563 4.491-.792 3.187-.459 6.478-.938 9.438-2.668a13.444 13.444 0 0 0 6.5-9.276 13.843 13.843 0 0 0-1.326-8.608 9.336 9.336 0 0 0 1.387-4.942zm-4.036 0a5.216 5.216 0 1 1-10.431 0 5.313 5.313 0 0 1 .683-2.606 5.959 5.959 0 0 1 .58-.834 4.571 4.571 0 0 1 .724-.688l.021-.021c.166-.125.352-.25.538-.375a.02.02 0 0 0 .021-.021c.083-.042.166-.1.248-.146.021 0 .041-.021.062-.021.083-.042.186-.083.29-.125s.207-.083.29-.125c.021 0 .041-.021.062-.021.083-.021.166-.063.248-.083.021 0 .062-.021.083-.021.1-.021.186-.042.29-.063h.021l.31-.063a.124.124 0 0 0 .083-.021c.083 0 .166-.021.248-.021h.1c.1 0 .207-.021.331-.021h.269a.843.843 0 0 1 .228.021h.041a4.117 4.117 0 0 1 .5.083 5.29 5.29 0 0 1 4.16 5.17zM26.708 4.169h32.555l-7.471 22.2a7.841 7.841 0 0 0-.931.271L43 10.485l-7.889 16.051a7.353 7.353 0 0 0-.973-.229zm14.8 29.475a9.267 9.267 0 0 0-2.794-5L43 19.928l4.326 8.9a9.437 9.437 0 0 0-2.587 4.815h-3.233zm-10.371-3.293c.1-.021.186-.042.29-.063h.062c.083-.021.166-.021.248-.042h.083c.083 0 .145-.021.228-.021h.807c.083 0 .145.021.207.021a.185.185 0 0 1 .1.021c.083.021.145.021.228.042a.156.156 0 0 1 .083.021c.1.021.207.042.29.063h.021a1.161 1.161 0 0 1 .248.083c.021 0 .041.021.083.021a.861.861 0 0 1 .207.083c.021 0 .041.021.062.021.083.042.166.063.248.1h.021a1.113 1.113 0 0 1 .269.146h.021c.083.042.166.1.248.146.021 0 .021.021.041.021.083.042.145.1.228.146l.021.021c.248.188.476.4.7.6l.021.021a5.156 5.156 0 0 1 .58.75 5.213 5.213 0 1 1-5.65-2.21zM10.771 30.2a5.253 5.253 0 1 1-5.216 5.253 5.239 5.239 0 0 1 5.216-5.253zm48.14 18.073a9.206 9.206 0 0 1-4.491 6.4c-2.256 1.313-5.029 1.73-7.947 2.147-1.594.229-3.27.479-4.884.876-4.3 1.063-8.444 3.148-12.459 5.149-5.13 2.568-9.976 4.986-14.468 4.986a10.8 10.8 0 0 1-6.416-2.064C3.693 62.6 3.921 56.658 4.459 53.406a32.1 32.1 0 0 1 3.208-8.63c.083-.167.145-.313.228-.479a7.988 7.988 0 0 0 1.428.375 10.626 10.626 0 0 0 5.8 11.236l.786.417.849-.313a28.18 28.18 0 0 0 9.929-6.212 27.953 27.953 0 0 0 4.3-5.149 8.233 8.233 0 0 0 1.428.1 9.3 9.3 0 0 0 8.962-6.983h3.477a9.272 9.272 0 0 0 8.962 6.983 9.109 9.109 0 0 0 4.684-1.288 9.535 9.535 0 0 1 .414 4.815z" transform="translate(-.038)" fill="#fff"/>
    </g>
  </g>
</svg>