<svg xmlns="http://www.w3.org/2000/svg" viewBox="0 0 65 67">
  <g>
    <g id="jquery-1">
      <g transform="translate(0 48.419)">
        <path fill='#fff' fill-rule='evenodd' d="M444.64 8.646l3.411.019-6.86 9.354a4.019 4.019 0 0 0-.553.78 17.5 17.5 0 0 0-.664 2.45l-3.121.016a13 13 0 0 0 .466-2.688 10.428 10.428 0 0 0-.664-2.45c-.235-.829-.553-2.45-.553-2.45h3.209l.443 1.782 4.888-6.811" transform="translate(-383.052 -7.273)"/>
        <path fill='#fff' fill-rule='evenodd' d="M157.26 3.275c.63.382 1.016 2.489 1.016 2.489s-3.294.049-5.087.049h-1.549l-1.881 8.24h-2.877s1.79-8.953 2.218-10.579c.137-.526.938-.435 2.292-.435h2.161c1.4 0 3.027-.179 3.712.236m-13.398 4.013a1.744 1.744 0 0 0-.3-1.141c-.337-.522-.647-.644-1.533-.672-2.5-.079-2.451 1.785-2.451 1.785zm2.711-2.135c.366 1.33-.332 4.454-.332 4.454s-3.646-.061-5.643 0c-.621.019-1.364-.068-1.549.223-.26.407.1 1.035.4 1.3a2.493 2.493 0 0 0 1.264.371 41.564 41.564 0 0 0 5.014.054l-.588 2.619a34.96 34.96 0 0 1-7.192-.334 2.437 2.437 0 0 1-1.217-.668c-.082-.089-.153-.21-.23-.315a2.931 2.931 0 0 1-.323-.576c-.548-1.469.064-4.282.664-5.79.07-.175.157-.4.249-.585.115-.235.212-.5.3-.64.062-.1.138-.159.2-.251a3.737 3.737 0 0 1 .24-.306 4.569 4.569 0 0 1 .775-.668 7.277 7.277 0 0 1 4.979-1.114 3.79 3.79 0 0 1 2.656 1.225 3.754 3.754 0 0 1 .332 1zm-13.2-2.125l2.79-.017s-1.555 7.422-2.347 11.041h-3.209c-2.243 0-4.24.28-5.09-1.336-.824-1.569-.038-4.149.332-5.9.261-1.24.811-3.776.811-3.776l2.89-.027s-.817 3.947-1.157 5.918c-.122.706-.373 1.371-.111 1.893.249.5.6.532 1.66.557.337.008 1.439 0 1.439 0l1.992-8.352m-13.053 5.345a10.722 10.722 0 0 0 .664-3.118 2.676 2.676 0 0 0-1.439-2.116 3.67 3.67 0 0 0-3.762.891 6.2 6.2 0 0 0-1.328 3.229 4.886 4.886 0 0 0 0 2.895c.666 1.408 2.743 1.1 4.98 1.114.332-.895.606-1.901.885-2.895zm3.873-4.12c.319 2.332-.9 4.905-1.746 7.143.859.078 1.611-.012 1.665.052a9.118 9.118 0 0 1-.8 2.678c-.681.018-2.94.037-3.882.037-3.073 0-5.948.2-7.414-1.336a4.864 4.864 0 0 1-1.107-2.45 10.452 10.452 0 0 1 .332-3.786 11.5 11.5 0 0 1 1.107-2.9 6.94 6.94 0 0 1 7.3-3.563 6.982 6.982 0 0 1 2.447.784c.045.027.2.154.24.176a4.853 4.853 0 0 1 1.86 3.165zM110.6 3.042c-.186.852-.372 1.817-.568 2.659h-3.1c.24-.933.424-1.861.664-2.672.991 0 1.913.013 3 .013m-3.777 3.439h2.988c-.391 2.176-1.164 5.686-1.771 8.129-.38 1.529-.633 2.645-1.66 3.452-.092.072-.145.038-.221.111a4.208 4.208 0 0 1-1.549.445 22.134 22.134 0 0 1-2.647-.009c.253-.932.54-2.051.766-2.886 2.36.288 2.42-1.958 2.877-4.12.264-1.249 1.066-4.621 1.217-5.122" transform="translate(-101.965 -.078)"/>
      </g>
      <g transform="translate(10.562)">
        <path fill='#fff' fill-rule='evenodd' d="M44.631 49.273l-.2.522c-3.408 6.679-9.448 10.777-18.063 10.958A25.119 25.119 0 0 1 16 58.666 26.862 26.862 0 0 1 3.552 46.837C-.013 39.89-.656 30.226 6.756 23.008c.114 0-.9 1.565-.785 1.565l-.2.668c-5.341 16.827 11.114 31.247 27.11 29.6a20.955 20.955 0 0 0 11.753-5.566" transform="translate(-.981 -16.203)"/>
        <path fill='#fff' fill-rule='evenodd' d="M48.224 37.673a15.258 15.258 0 0 0 10.717-4.522c-2.178 5.563-8.483 9.138-16.939 8-7.08-.953-13.825-8.123-14.519-15.307-.508-5.228 1.3-8.349 4.287-12.134a12.753 12.753 0 0 0-1.521 4.48c-1.135 11.31 8.977 19.424 17.975 19.483" transform="translate(-14.253 -11.561)"/>
        <path fill='#fff' fill-rule='evenodd' d="M70.134 21.481c-.625 1.444-4.227 4.171-5.818 4.512-6.3 1.35-10.332-1.655-12.446-5.076a15.713 15.713 0 0 1-1-2.261c-.819-2.8-.443-7.045 2-9.24a11.62 11.62 0 0 0-.456 6.088 13.561 13.561 0 0 0 1.666 3.663 9.593 9.593 0 0 0 3.8 3.382 10.059 10.059 0 0 0 1.912.921c1.587.47 4.937 1.708 10.337-1.99" transform="translate(-25.851 -9.417)"/>
      </g>
    </g>
  </g>
</svg>