<svg xmlns="http://www.w3.org/2000/svg" viewBox="0 0 65 61">
  <g>
    <path data-name="redux" d="M45.038 42.6a4.59 4.59 0 0 0-.5-9.158h-.165a4.6 4.6 0 0 0-4.467 4.743 4.671 4.671 0 0 0 1.323 3.025c-2.808 5.48-7.109 9.49-13.561 12.839a22.59 22.59 0 0 1-13.482 2.535 11.524 11.524 0 0 1-8.438-4.824 11.9 11.9 0 0 1-.661-12.674 19.314 19.314 0 0 1 5.625-6.542c-.331-1.063-.827-2.862-1.075-4.17C-2.358 36.96-1.117 48.571 2.523 54.049c2.729 4.089 8.272 6.623 14.392 6.623a20.571 20.571 0 0 0 4.963-.572 31.694 31.694 0 0 0 23.16-17.5zM59.6 32.463c-6.286-7.278-15.55-11.284-26.138-11.284h-1.327a4.552 4.552 0 0 0-4.053-2.453h-.166a4.58 4.58 0 0 0 .166 9.158h.165A4.658 4.658 0 0 0 32.3 25.1h1.489a31.786 31.786 0 0 1 17.619 5.315 21.963 21.963 0 0 1 8.768 10.466 11.217 11.217 0 0 1-.166 9.649 12.162 12.162 0 0 1-11.332 6.705 21.362 21.362 0 0 1-8.106-1.717c-.91.818-2.564 2.126-3.722 2.944A25.779 25.779 0 0 0 47.52 61c7.941 0 13.814-4.334 16.047-8.668 2.4-4.743 2.233-12.92-3.97-19.87zM17.577 43.992a4.622 4.622 0 0 0 4.632 4.415h.166a4.58 4.58 0 0 0-.166-9.158h-.165a1.424 1.424 0 0 0-.579.082 29.686 29.686 0 0 1-4.3-18.153A21.789 21.789 0 0 1 22.043 8.5c2.4-3.025 7.031-4.5 10.174-4.579 8.768-.164 12.49 10.63 12.738 14.964 1.075.245 2.9.818 4.136 1.227C48.1 6.869 39.827 0 31.887 0c-7.445 0-14.31 5.315-17.04 13.165-3.8 10.466-1.323 20.524 3.309 28.456a3.642 3.642 0 0 0-.579 2.371z" fill="#fff"/>
  </g>
</svg>