<svg xmlns="http://www.w3.org/2000/svg" viewBox="0 0 65 49">
  <g>
    <path d="M55.955 28.137a13.329 13.329 0 0 0-5.891 1.379 12.223 12.223 0 0 1-1.32-3.065 8.523 8.523 0 0 1-.114-2.579 20.759 20.759 0 0 1 .774-2.784c-.013-.115-.14-.677-1.447-.69s-2.438.255-2.565.6a14.729 14.729 0 0 0-.546 1.954c-.229 1.2-2.615 5.452-3.974 7.687a7.868 7.868 0 0 1-.9-2.247 8.523 8.523 0 0 1-.114-2.579 20.77 20.77 0 0 1 .774-2.784c-.013-.115-.14-.677-1.447-.69s-2.438.255-2.565.6-.267 1.162-.546 1.954-3.441 7.891-4.266 9.743c-.419.945-.787 1.7-1.054 2.209s-.013.038-.038.089l-.356.677v.013c-.178.319-.368.626-.457.626a4.282 4.282 0 0 1 .025-2.03c.47-2.465 1.612-6.308 1.6-6.448 0-.064.216-.741-.737-1.085a1.153 1.153 0 0 0-1.333.23c-.076 0-.14.2-.14.2s1.028-4.328-1.968-4.328c-1.879 0-4.469 2.056-5.751 3.933-.813.447-2.539 1.392-4.368 2.4-.7.383-1.422.792-2.108 1.162l-.14-.153c-3.63-3.892-10.346-6.65-10.067-11.885.1-1.9.762-6.921 12.9-13 9.941-4.98 17.9-3.614 19.286-.575 1.968 4.341-4.253 12.411-14.588 13.573-3.936.447-6.006-1.085-6.526-1.66-.546-.6-.622-.626-.825-.511-.33.179-.127.715 0 1.034a6.137 6.137 0 0 0 3.733 2.95c1.892.626 6.513.97 12.1-1.2 6.259-2.439 11.147-9.206 9.713-14.863C39.247.237 29.75-1.653 20.774 1.552c-5.345 1.915-11.135 4.9-15.3 8.823C.523 15.023-.264 19.084.066 20.769c1.156 6.014 9.4 9.934 12.7 12.833-.165.089-.317.179-.457.255-1.651.817-7.935 4.124-9.51 7.623-1.783 3.958.276 6.806 1.647 7.189 4.241 1.187 8.583-.945 10.932-4.456a11.081 11.081 0 0 0 .977-10.154l-.038-.077 1.3-.766c.838-.5 1.663-.958 2.387-1.354a15.977 15.977 0 0 0-.851 4.341c-.178 2.247.736 5.159 1.943 6.308a2.141 2.141 0 0 0 1.562.511c1.4 0 2.031-1.162 2.73-2.554.863-1.7 1.625-3.665 1.625-3.665s-.952 5.325 1.651 5.325c.952 0 1.9-1.239 2.336-1.877v.013s.025-.038.076-.128.1-.16.152-.242v-.026c.381-.664 1.232-2.183 2.5-4.7 1.638-3.243 3.212-7.3 3.212-7.3a23.419 23.419 0 0 0 .622 2.63 25.244 25.244 0 0 0 1.354 3.061c-.381.536-.609.843-.609.843l.013.013c-.3.409-.648.843-1 1.277a37.081 37.081 0 0 0-3.047 3.844 1.056 1.056 0 0 0 .279 1.4 2.529 2.529 0 0 0 1.6.255 7.093 7.093 0 0 0 2.387-.549 8.25 8.25 0 0 0 2.057-1.085 4.614 4.614 0 0 0 1.968-4.073 8.227 8.227 0 0 0-.748-2.865c.114-.166.229-.332.343-.511a53.983 53.983 0 0 0 3.555-6.193 23.419 23.419 0 0 0 .622 2.63 18.5 18.5 0 0 0 1.155 2.63 11.346 11.346 0 0 0-3.475 4.509c-.749 2.171-.165 3.154.94 3.384a3.363 3.363 0 0 0 1.739-.358 7.866 7.866 0 0 0 2.2-1.136 5 5 0 0 0 2.425-4.035 7.772 7.772 0 0 0-.546-2.388 12.3 12.3 0 0 1 6.3-.728c5.65.664 6.767 4.214 6.551 5.695a3.812 3.812 0 0 1-1.79 2.554c-.394.243-.521.332-.482.511.051.268.229.255.571.2a4.412 4.412 0 0 0 3.073-3.945c.152-3.512-3.161-7.343-9.04-7.3zM12.381 42.91c-1.866 2.056-4.495 2.835-5.612 2.171-1.206-.7-.737-3.728 1.562-5.912a29.886 29.886 0 0 1 4.406-3.31c.267-.166.673-.408 1.155-.7a1.353 1.353 0 0 1 .127-.077c.089-.051.19-.115.292-.179a8.178 8.178 0 0 1-1.93 8.006zm13.649-9.334c-.648 1.6-2.019 5.695-2.844 5.465-.711-.192-1.143-3.294-.14-6.359a14.219 14.219 0 0 1 2.222-4.1c1.029-1.149 2.146-1.532 2.425-1.06.33.615-1.257 5.058-1.663 6.054zm11.262 5.414c-.279.141-.533.243-.648.166-.089-.051.114-.243.114-.243s1.409-1.519 1.968-2.222c.317-.408.7-.881 1.1-1.417v.153c0 1.839-1.752 3.064-2.539 3.562zm8.684-1.992c-.2-.153-.178-.626.508-2.107a7.891 7.891 0 0 1 1.93-2.5 3.175 3.175 0 0 1 .19 1.1 3.588 3.588 0 0 1-2.628 3.507z" fill="#fff"/>
  </g>
</svg>