<svg xmlns="http://www.w3.org/2000/svg" viewBox="0 0 65 71">
    <g>
      <path d="M102.2 0l32.5 17.75v35.5L102.2 71 69.7 53.25v-35.5z" transform="translate(-69.7)" fill="#fff"/>
      <path fill='#de4a4a' d="M189.349 131.243l-25.624 13.993v-10.9l15.965-8.479zm1.753-1.532v-29.264l-9.377 5.224v18.809l9.377 5.23zm-55.249 1.532l25.624 13.993v-10.9l-15.965-8.479zm-1.753-1.532v-29.264l9.377 5.224v18.809l-9.377 5.23zm1.1-31.157L161.476 84.2v10.538l-16.835 8.94-.129.071zm54.808 0L163.726 84.2v10.538l16.835 8.94.129.071z" transform="translate(-130.153 -79.218)"/>
      <path fill='#de4a4a' id="Path_29" data-name="Path 29" class="cls-3" d="M339.55 329.34l-15.751-8.36v-16.567l15.751 8.78v16.147m2.249 0l15.75-8.36v-16.567l-15.75 8.78v16.147m-16.933-26.84l15.812-8.4 15.812 8.4-15.812 8.816-15.812-8.816" transform="translate(-308.227 -276.699)"/>
    </g>
</svg>