<svg xmlns="http://www.w3.org/2000/svg" viewBox="0 0 65 64">
  <g>
    <g transform="translate(-1228 -346)">
      <path fill='#fff' d="M17.409 8.256h65v64h-65z" transform="translate(1210.591 337.744)"/>
      <g transform="translate(1232.608 350.633)">
        <g>
          <path d="M10 10h55.118v53.615H10z" transform="translate(-10 -10)" fill="#de4a4a"/>
          <path fill='#fff' d="M77.549 66.223a3.44 3.44 0 0 0-1.453-.251c-3.157 0-5.261 2.43-5.261 6.464 0 4.61 2.155 6.464 4.961 6.464a4.727 4.727 0 0 0 1.729-.276v-12.4zm-11.224 6.414c0-5.838 3.758-10.4 9.921-10.4a11.109 11.109 0 0 1 1.3.05v-6.511a.251.251 0 0 1 .251-.251h4.034c.2 0 .251.075.251.2v22.9a17.845 17.845 0 0 0 .125 2.455c0 .175 0 .2-.15.276a14.924 14.924 0 0 1-6.414 1.453c-5.437 0-9.32-3.357-9.32-10.172zm-8.543-4.059l7.015 13.6c.125.2.05.4-.15.4h-4.36a.492.492 0 0 1-.526-.326Q57.356 77.3 54.85 71.96h-.05c-1.5 3.357-3.157 7.015-4.76 10.322a.481.481 0 0 1-.451.276H45.43c-.251 0-.276-.2-.15-.351L52.145 69l-6.64-13.124a.222.222 0 0 1 .175-.376h4.31c.251 0 .376.05.451.276 1.578 3.332 3.182 6.614 4.685 9.971h.05c1.453-3.307 3.057-6.639 4.585-9.921.125-.2.2-.326.451-.326h4.034c.2 0 .276.15.15.376l-6.614 12.7z" transform="translate(-36.386 -44.101)"/>
        </g>
      </g>
    </g>
  </g>
</svg>